<svg width="40" height="39" viewBox="0 0 40 39" fill="none" xmlns="http://www.w3.org/2000/svg">
        <path d="M27.8904 18.9697C28.1833 19.2626 28.1833 19.7374 27.8904 20.0303L23.1174 24.8033C22.8245 25.0962 22.3496 25.0962 22.0567 24.8033C21.7639 24.5104 21.7639 24.0355 22.0567 23.7426L26.2994 19.5L22.0567 15.2574C21.7638 14.9645 21.7638 14.4896 22.0567 14.1967C22.3496 13.9038 22.8245 13.9038 23.1174 14.1967L27.8904 18.9697ZM12.64 18.75L27.36 18.75L27.36 20.25L12.64 20.25L12.64 18.75Z" fill="#2A5DDB" style="fill:#2A5DDB;fill:color(display-p3 0.1647 0.3647 0.8588);fill-opacity:1;"/>
        <path d="M37.65 19.5C37.65 10.024 29.7658 2.31001 20 2.31001C10.2342 2.31001 2.35001 10.024 2.35001 19.5C2.35001 28.976 10.2342 36.69 20 36.69C29.7658 36.69 37.65 28.976 37.65 19.5Z" stroke="#2A5DDB" style="stroke:#2A5DDB;stroke:color(display-p3 0.1647 0.3647 0.8588);stroke-opacity:1;" stroke-width="1.5"/>
        </svg>