<svg width="54" height="54" viewBox="0 0 54 54" fill="none" xmlns="http://www.w3.org/2000/svg"> <path d="M38.4004 25.68C38.9913 26.271 38.9913 27.229 38.4004 27.82L28.7707 37.4496C28.1798 38.0406 27.2217 38.0406 26.6308 37.4496C26.0398 36.8587 26.0398 35.9006 26.6308 35.3097L35.1905 26.75L26.6308 18.1903C26.0398 17.5994 26.0398 16.6413 26.6308 16.0504C27.2217 15.4594 28.1798 15.4594 28.7707 16.0504L38.4004 25.68ZM16.1704 25.2368L37.3304 25.2368L37.3304 28.2632L16.1704 28.2632L16.1704 25.2368Z" fill="#2A5DDB" style="fill:#2A5DDB;fill:color(display-p3 0.1647 0.3647 0.8588);fill-opacity:1;"/> <path d="M51.6869 26.75C51.6869 12.9777 40.5223 1.81312 26.75 1.81312C12.9778 1.81312 1.8132 12.9777 1.8132 26.75C1.81321 40.5222 12.9778 51.6868 26.75 51.6868C40.5223 51.6868 51.6869 40.5222 51.6869 26.75Z" stroke="#2A5DDB" style="stroke:#2A5DDB;stroke:color(display-p3 0.1647 0.3647 0.8588);stroke-opacity:1;" stroke-width="3.02632"/> </svg>