<svg aria-hidden="true" focusable="false" class="icon icon-linkdin" viewBox="0 0 976 848" width="22px" height="22px" xmlns="http://www.w3.org/2000/svg">
<path transform="translate(652,271)" d="m0 0h28l27 4 24 5 22 9 10 6 13 10 11 11 11 15 9 16 10 26 3 14 3 28 3 55 1 42v193l-1 1h-135l-1-222-2-36-5-19-8-16-6-8-8-7-14-6-10-2h-34l-15 3-12 5-13 11-8 11-7 14-4 12-3 19-1 14-1 226-1 1h-135l-1-17v-380l1-26 2-1 127 1 1 1 1 54 4-2 7-11 12-13 10-9 13-9 20-11 14-5 31-6z" fill="#294A7A"/>
<path transform="translate(178,282)" d="m0 0 139 1 1 1v421l-1 1h-140v-423z" fill="#294A7A"/>
<path transform="translate(237,86)" d="m0 0h21l14 3 12 5 9 7 5 4 10 13 5 11 3 11 1 8v16l-3 15-5 12-4 6-9 10-11 9-12 5-14 3h-24l-14-3-14-7-10-9-9-11-7-17-3-14v-18l4-16 7-14 9-11 8-7 16-8z" fill="#294A7A"/>
</svg>