<svg width="54" height="54" viewBox="0 0 54 54" fill="none" xmlns="http://www.w3.org/2000/svg"> <path d="M15.0996 25.68C14.5087 26.271 14.5087 27.229 15.0996 27.82L24.7293 37.4496C25.3202 38.0406 26.2783 38.0406 26.8692 37.4496C27.4602 36.8587 27.4602 35.9006 26.8692 35.3097L18.3095 26.75L26.8692 18.1903C27.4602 17.5994 27.4602 16.6413 26.8692 16.0504C26.2783 15.4594 25.3202 15.4594 24.7293 16.0504L15.0996 25.68ZM37.3296 25.2368L16.1696 25.2368L16.1696 28.2632L37.3296 28.2632L37.3296 25.2368Z" fill="#2A5DDB" fill-opacity="1" style="fill:#2A5DDB;fill:color(display-p3 0.1647 0.3647 0.8588);fill-opacity:1;"/> <path d="M1.81312 26.75C1.81312 12.9777 12.9777 1.81312 26.75 1.81312C40.5222 1.81312 51.6868 12.9777 51.6868 26.75C51.6868 40.5222 40.5222 51.6868 26.75 51.6868C12.9777 51.6868 1.81312 40.5222 1.81312 26.75Z" stroke="#2A5DDB" stroke-opacity="1" style="stroke:#2A5DDB;stroke:color(display-p3 0.1647 0.3647 0.8588);stroke-opacity:1;" stroke-width="3.02632"/> </svg>