<svg width="42" height="41" viewBox="0 0 42 41" fill="none" xmlns="http://www.w3.org/2000/svg">
        <path d="M13.1083 21.0108C12.8162 20.7171 12.8173 20.2423 13.111 19.9501L17.8957 15.189C18.1894 14.8968 18.6642 14.898 18.9564 15.1916C19.2486 15.4852 19.2474 15.9601 18.9538 16.2522L14.7006 20.4844L18.9327 24.7375C19.2249 25.0311 19.2237 25.506 18.9301 25.7982C18.6365 26.0903 18.1616 26.0891 17.8695 25.7955L13.1083 21.0108ZM28.3581 21.2682L13.6381 21.2317L13.6418 19.7317L28.3618 19.7682L28.3581 21.2682Z" fill="#2A5DDB"/>
        <path d="M3.35006 20.4562C3.32658 29.9322 11.1916 37.6657 20.9574 37.6899C30.7232 37.7141 38.6265 30.0196 38.6499 20.5437C38.6734 11.0677 30.8084 3.3342 21.0426 3.31002C11.2768 3.28583 3.37353 10.9803 3.35006 20.4562Z" stroke="#2A5DDB" stroke-width="1.5"/>
        </svg>