<svg aria-hidden="true" focusable="false" class="icon icon-instagram" viewBox="0 0 928 928" width="22" height="22" xmlns="http://www.w3.org/2000/svg">
<path transform="translate(334,93)" d="m0 0h263l33 1 21 2 25 4 16 5 24 10 22 12 14 11 15 14 9 9 7 8 10 12 10 15 13 24 8 20 4 14 3 21 3 44 1 43v234l-1 30-4 36-4 19-5 15-10 22-6 10-9 14-8 11-13 15-13 13-9 7-18 13-18 10-16 8-10 4-17 5-27 4-12 1-41 1h-254l-52-2-24-2-21-4-15-5-6-3 3-1-15-6-22-13-12-9-14-12-16-16-7-9-11-15-10-17-5-10-10-25-5-20-3-25-1-12-1-27v-293l2-25 4-26 7-24 12-27 9-15 12-16 9-11 19-19 8-6 4-4 13-9 14-8 16-8 20-8 16-4 28-3 15-1zm340 124-11 4-7 6-4 7-1 4v18l4 9 7 8 10 4h17l9-4 5-4 5-8 2-6v-16l-4-9-6-7-10-5-6-1zm-223 62-26 3-20 5-13 5-17 8-21 14-12 9-21 21-14 19-9 16-11 25-4 15-4 32v25l2 19 4 20 7 21 9 19 8 12 13 18 15 16 8 7 14 10 21 12 16 7 19 6 16 3 19 2h28l28-3 14-4 19-7 19-10 12-8 11-8 10-9 14-14 10-13 8-12 6-11 7-14 6-17 4-17 2-16v-39l-3-25-5-19-8-18-10-19-8-12-9-11-21-21-18-13-19-11-20-8-21-6-24-3-15-1z" fill="#2A4C7B"/>
<path transform="translate(455,341)" d="m0 0h17l21 3 16 4 16 8 13 9 15 14 11 13 13 21 5 15 3 19 1 13v14l-3 21-4 15-9 17-10 14-14 15-13 10-14 9-16 6-20 4-9 1h-18l-25-3-16-5-15-8-14-10-16-16-10-14-9-16-6-18-4-24v-18l4-23 6-18 7-14 12-16 10-11 14-11 18-11 11-4 23-4z" fill="#2A4C7B"/>
<path transform="translate(215,814)" d="m0 0 3 1z" fill="#FEFEFE"/>
<path transform="translate(219,816)" d="m0 0 2 1z" fill="#FEFEFE"/>
<path transform="translate(207,810)" d="m0 0 2 1z" fill="#FEFEFE"/>
<path transform="translate(218,815)" d="m0 0" fill="#FEFEFE"/>
</svg>