<svg aria-hidden="true" focusable="false" class="icon icon-youtube" viewBox="0 0 912 912" width="1280" height="1280" xmlns="http://www.w3.org/2000/svg">
<path transform="translate(457,122)" d="m0 0 45 1 64 4 52 6 36 5 39 5 55 10 23 6 12 5 16 9 15 14 9 9 8 11 8 13 5 12 3 16 2 21 1 16 1 38v293l-1 24-3 25-4 17-5 12-9 14-9 11-11 11-13 10-14 8-24 8-23 5-53 9-53 7-24 3-46 5-33 2-56 2-43-1-53-2-27-2-71-8-42-6-16-2-31-6-30-5-26-8-16-9-14-12-13-13-9-13-8-15-5-15-3-20-2-33v-342l2-21 4-21 6-16 11-18 9-10 8-8h2v-2h2v-2h2v-2l9-6 13-8 14-5 28-7 60-10 32-4 61-8 34-3 61-3zm-91 194-1 8v266l2 7 5-2v-5l4-2 7-2 11-6 3-4 3 1 4-1 5-5 7-3 2-4 5 1 1-4 9-3h2l4-8 1 4 4 1v-6l3-2v-2l5 2 3-1 3-5 3-1 1 2 5-6 8-1 1-5 6-1 10-6 3-1v-2l6-2 16-10 17-9 15-9 13-7 10-6 9-5 21-12 4-5-4-2v-2l-19-10-25-15-11-6-23-13-24-14-78-45-22-13-25-14-7-5z" fill="#2B4C7B"/>
</svg>