<svg xmlns="http://www.w3.org/2000/svg" fill="none" viewBox="0 0 121 20" height="20" width="121">
<path fill="#F4F1ED" d="M4.57999 15.1258H16.7559V19.3842H0V0.0263672H4.5789V15.1258H4.57999Z"></path>
<path fill="#F4F1ED" d="M49.8365 19.3842H45.2065L48.279 11.8477L48.254 11.8224H44.7969L40.0329 0.0263672H44.309L48.5088 10.4029H48.8421L53.0681 0.0263672H57.6982L49.8365 19.3853V19.3842Z"></path>
<path fill="#F4F1ED" d="M80.599 19.3842V0.0263672H93.3521C94.1548 0.0263672 94.9096 0.18116 95.6187 0.490744C96.3267 0.800329 96.9464 1.22189 97.4757 1.75543C98.0051 2.28897 98.4233 2.91253 98.7305 3.62721C99.0376 4.34189 99.1912 5.10268 99.1912 5.91177C99.1912 6.6001 99.0801 7.25001 98.8579 7.8604C98.6357 8.47188 98.3329 9.03067 97.9484 9.53786C97.564 10.0462 97.1076 10.4765 96.5783 10.8289C96.0489 11.1813 95.4771 11.4448 94.8628 11.616L97.9354 19.3853H93.7355L90.7392 11.8224H84.7977V19.3853H80.5979L80.599 19.3842ZM94.9238 7.61449V4.23321H84.7988V7.61449H94.9238Z"></path>
<path fill="#F4F1ED" d="M102.463 8.18204C102.156 7.47614 102.003 6.71974 102.003 5.91065C102.003 5.10156 102.156 4.33638 102.463 3.61292C102.77 2.89055 103.189 2.2626 103.718 1.72906C104.247 1.19552 104.866 0.773962 105.575 0.464377C106.283 0.154792 107.039 0 107.842 0H120.133V4.20684H106.295V7.61447H114.756C115.558 7.61447 116.318 7.76926 117.035 8.07884C117.752 8.38843 118.375 8.80999 118.904 9.34353C119.434 9.87707 119.852 10.5006 120.159 11.2153C120.466 11.93 120.62 12.6908 120.62 13.4999C120.62 14.309 120.466 15.0708 120.159 15.7844C119.852 16.4991 119.434 17.1227 118.904 17.6562C118.375 18.1897 117.752 18.6113 117.035 18.9209C116.319 19.2305 115.558 19.3853 114.756 19.3853H102.464V15.1784H116.329V11.7972H107.843C107.04 11.7972 106.284 11.6424 105.576 11.3328C104.867 11.0232 104.248 10.6016 103.719 10.0681C103.19 9.53455 102.772 8.9066 102.464 8.18423L102.463 8.18204Z"></path>
<path fill="#F4F1ED" d="M34.8359 1.88288C33.9798 -0.197487 32.4343 0.0253698 30.4683 0.0264676C28.5023 0.0264676 26.9568 -0.197487 26.0996 1.88398C25.2424 3.96654 18.9274 19.3854 18.9274 19.3854H23.2797L24.9386 15.2016H35.9991L37.658 19.3854H42.0103C42.0103 19.3854 35.6953 3.96654 34.8381 1.88398L34.8359 1.88288ZM26.4939 11.3109L29.9564 2.61622H30.9791L34.4416 11.3109H26.4939Z"></path>
<path fill="#F4F1ED" d="M60.1979 19.3316V0.0078125H76.6106V4.23331H64.4086V7.47956H70.7378V11.7303H64.4086V15.0798H76.5845V19.3305H60.1968L60.1979 19.3316Z"></path>
</svg>
