<svg xmlns="http://www.w3.org/2000/svg" fill="none" viewBox="0 0 324 52" height="52" width="324">
<path fill="#294B7A" d="M12.3024 40.5741H45.0084V51.9971H0V0.0708008H12.2995V40.5741H12.3024Z"></path>
<path fill="#294B7A" d="M133.867 51.9971H121.43L129.683 31.7808L129.616 31.7131H120.33L107.533 0.0708008H119.019L130.3 27.9054H131.195L142.547 0.0708008H154.984L133.867 52V51.9971Z"></path>
<path fill="#294B7A" d="M216.5 51.9971V0.0708008H250.756C252.912 0.0708008 254.94 0.486023 256.844 1.31647C258.746 2.14691 260.411 3.27773 261.833 4.70892C263.255 6.14011 264.378 7.81277 265.203 9.72986C266.028 11.647 266.441 13.6877 266.441 15.8581C266.441 17.7045 266.142 19.4478 265.545 21.0852C264.949 22.7254 264.135 24.2243 263.102 25.5849C262.07 26.9483 260.844 28.1027 259.422 29.048C258 29.9933 256.464 30.7 254.814 31.1594L263.067 52H251.786L243.737 31.7131H227.778V52H216.497L216.5 51.9971ZM254.978 20.4255V11.3554H227.781V20.4255H254.978Z"></path>
<path fill="#294B7A" d="M275.229 21.9479C274.404 20.0543 273.992 18.0253 273.992 15.855C273.992 13.6847 274.404 11.6321 275.229 9.69146C276.054 7.75375 277.178 6.06931 278.6 4.63812C280.021 3.20693 281.683 2.07611 283.588 1.24567C285.49 0.415222 287.52 0 289.676 0H322.692V11.2846H285.522V20.4254H308.248C310.405 20.4254 312.444 20.8406 314.372 21.671C316.297 22.5015 317.97 23.6323 319.392 25.0635C320.814 26.4947 321.938 28.1674 322.763 30.0844C323.588 32.0015 324 34.0423 324 36.2127C324 38.383 323.588 40.4267 322.763 42.3409C321.938 44.2579 320.814 45.9306 319.392 47.3618C317.97 48.793 316.297 49.9238 314.372 50.7543C312.447 51.5847 310.405 51.9999 308.248 51.9999H275.232V40.7153H312.473V31.6452H289.679C287.523 31.6452 285.493 31.23 283.591 30.3995C281.686 29.5691 280.024 28.4383 278.603 27.0071C277.181 25.5759 276.057 23.8915 275.232 21.9538L275.229 21.9479Z"></path>
<path fill="#294B7A" d="M93.5746 5.05042C91.275 -0.530049 87.1235 0.0677526 81.8426 0.0706974C76.5618 0.0706974 72.4103 -0.530049 70.1078 5.05336C67.8053 10.6397 50.8423 51.9999 50.8423 51.9999H62.5332L66.989 40.7772H96.6992L101.155 51.9999H112.846C112.846 51.9999 95.8829 10.6397 93.5804 5.05336L93.5746 5.05042ZM71.1669 30.3407L80.4676 7.01756H83.2148L92.5155 30.3407H71.1669Z"></path>
<path fill="#294B7A" d="M161.699 51.8555V0.0205078H205.786V11.3552H173.009V20.0631H190.01V31.4655H173.009V40.4502H205.715V51.8526H161.696L161.699 51.8555Z"></path>
</svg>
