<svg xmlns="http://www.w3.org/2000/svg" aria-hidden="true" focusable="false" class="icon icon-account" fill="none" viewBox="0 0 16 12">
<path d="M15.0625 11.1562H0.9375C0.688946 11.156 0.450652 11.0571 0.274898 10.8814C0.0991436 10.7056 0.000281217 10.4673 0 10.2188V1.78125C0.000281217 1.5327 0.0991436 1.2944 0.274898 1.11865C0.450652 0.942894 0.688946 0.844031 0.9375 0.84375H15.0625C15.3111 0.844031 15.5493 0.942894 15.7251 1.11865C15.9009 1.2944 15.9997 1.5327 16 1.78125V10.2188C15.9997 10.4673 15.9009 10.7056 15.7251 10.8814C15.5493 11.0571 15.3111 11.156 15.0625 11.1562ZM0.9375 1.46875C0.854648 1.46884 0.775215 1.50179 0.71663 1.56038C0.658044 1.61896 0.625091 1.6984 0.625 1.78125V10.2188C0.625091 10.3016 0.658044 10.381 0.71663 10.4396C0.775215 10.4982 0.854648 10.5312 0.9375 10.5312H15.0625C15.1454 10.5312 15.2248 10.4982 15.2834 10.4396C15.342 10.381 15.3749 10.3016 15.375 10.2188V1.78125C15.3749 1.6984 15.342 1.61896 15.2834 1.56038C15.2248 1.50179 15.1454 1.46884 15.0625 1.46875H0.9375Z" fill="white"/>
<path d="M7.99982 7.48425C7.93 7.4843 7.86218 7.46092 7.80722 7.41785L0.325972 1.5635C0.260699 1.51242 0.218392 1.43751 0.208355 1.35523C0.198319 1.27296 0.221377 1.19007 0.272456 1.1248C0.323535 1.05953 0.398451 1.01722 0.480724 1.00718C0.562997 0.997147 0.645887 1.02021 0.711159 1.07128L7.99982 6.77488L15.2885 1.07128C15.3208 1.04599 15.3578 1.02731 15.3973 1.01632C15.4369 1.00532 15.4782 1.00221 15.5189 1.00718C15.5596 1.01215 15.599 1.0251 15.6347 1.04528C15.6705 1.06546 15.7019 1.09248 15.7272 1.1248C15.7525 1.15712 15.7711 1.1941 15.7821 1.23364C15.7931 1.27318 15.7962 1.3145 15.7913 1.35523C15.7863 1.39597 15.7734 1.43533 15.7532 1.47107C15.733 1.5068 15.706 1.53821 15.6737 1.5635L8.19241 7.41785C8.13746 7.46092 8.06964 7.4843 7.99982 7.48425Z" fill="white"/>
<path d="M15.0625 1.46875H0.9375C0.85462 1.46875 0.775134 1.43583 0.716529 1.37722C0.657924 1.31862 0.625 1.23913 0.625 1.15625C0.625 1.07337 0.657924 0.993884 0.716529 0.935279C0.775134 0.876674 0.85462 0.84375 0.9375 0.84375H15.0625C15.1454 0.84375 15.2249 0.876674 15.2835 0.935279C15.3421 0.993884 15.375 1.07337 15.375 1.15625C15.375 1.23913 15.3421 1.31862 15.2835 1.37722C15.2249 1.43583 15.1454 1.46875 15.0625 1.46875Z" fill="white"/>
</svg>