<svg xmlns="http://www.w3.org/2000/svg" aria-hidden="true" focusable="false" class="icon icon-account" fill="none" viewBox="0 0 14 14">
<path d="M10.5 10.501C10.3618 10.501 10.25 10.389 10.25 10.251V8.25098C10.25 8.11298 10.3618 8.00098 10.5 8.00098C10.6382 8.00098 10.75 8.11298 10.75 8.25098V10.251C10.75 10.389 10.6382 10.501 10.5 10.501Z" fill="white"/>
<path d="M12.5 10.501H10.5C10.3618 10.501 10.25 10.389 10.25 10.251C10.25 10.113 10.3618 10.001 10.5 10.001H12.5C12.6382 10.001 12.75 10.113 12.75 10.251C12.75 10.389 12.6382 10.501 12.5 10.501Z" fill="white"/>
<path d="M5.69674 13.001C5.65349 13.001 5.61049 12.99 5.57174 12.9675L0.375488 9.96754C0.297988 9.92279 0.250488 9.84029 0.250488 9.75104V3.75104C0.250488 3.66179 0.297988 3.57904 0.375488 3.53454L5.57174 0.534539C5.64924 0.489789 5.74424 0.489789 5.82174 0.534539L11.018 3.53454C11.0955 3.57929 11.143 3.66179 11.143 3.75104V6.27029C11.143 6.40829 11.0312 6.52029 10.893 6.52029C10.7547 6.52029 10.643 6.40829 10.643 6.27029V3.89529L5.69674 1.03979L0.750488 3.89529V9.60679L5.69674 12.4623L6.79924 11.8258C6.91899 11.7565 7.07174 11.7975 7.14074 11.9173C7.20974 12.037 7.16874 12.1898 7.04924 12.2588L5.82174 12.9673C5.78299 12.9898 5.73999 13.001 5.69674 13.001Z" fill="white"/>
<path d="M10.4765 13.4989C10.1652 13.4989 9.8555 13.4526 9.55525 13.3616C8.40475 13.0126 7.52125 12.0241 7.30375 10.8431C7.08225 9.64088 7.56975 8.38913 8.5465 7.65363C9.102 7.23538 9.798 7.00488 10.5062 7.00488C11.0187 7.00488 11.5262 7.12563 11.9745 7.35438C13.0532 7.90438 13.75 9.04138 13.75 10.2511C13.75 11.1231 13.3985 11.9439 12.76 12.5616C12.145 13.1571 11.3125 13.4989 10.4765 13.4989ZM10.5062 7.50488C9.906 7.50488 9.3165 7.69963 8.84725 8.05288C8.02075 8.67538 7.608 9.73513 7.7955 10.7524C7.97925 11.7516 8.72725 12.5879 9.70025 12.8829C10.637 13.1671 11.6957 12.8956 12.4122 12.2021C12.9527 11.6796 13.25 10.9866 13.25 10.2511C13.25 9.22738 12.6602 8.26513 11.7475 7.79963C11.3695 7.60688 10.9402 7.50488 10.5062 7.50488Z" fill="white"/>
<path d="M2.5984 5.21209C2.5119 5.21209 2.4279 5.16734 2.38165 5.08709C2.31265 4.96733 2.35365 4.81458 2.47315 4.74558L7.6694 1.74558C7.7884 1.67633 7.94165 1.71733 8.0109 1.83708C8.0799 1.95684 8.0389 2.10958 7.9194 2.17858L2.72315 5.17858C2.6839 5.20133 2.6409 5.21209 2.5984 5.21209Z" fill="white"/>
<path d="M3.5984 5.78961C3.5119 5.78961 3.4279 5.74486 3.38165 5.66461C3.31265 5.54486 3.35365 5.39211 3.47315 5.32311L8.6694 2.32311C8.78865 2.25411 8.94165 2.29486 9.0109 2.41461C9.0799 2.53436 9.0389 2.68711 8.9194 2.75611L3.72315 5.75611C3.6839 5.77886 3.6409 5.78961 3.5984 5.78961Z" fill="white"/>
<path d="M3.59814 7.52155C3.46014 7.52155 3.34814 7.40955 3.34814 7.27155V5.53955C3.34814 5.40155 3.46014 5.28955 3.59814 5.28955C3.73614 5.28955 3.84814 5.40155 3.84814 5.53955V7.27155C3.84814 7.40955 3.73614 7.52155 3.59814 7.52155Z" fill="white"/>
<path d="M3.59795 7.52158C3.5557 7.52158 3.51245 7.51082 3.4732 7.48807L2.4732 6.91057C2.35345 6.84157 2.3127 6.68857 2.3817 6.56907C2.4507 6.44957 2.6037 6.40808 2.7232 6.47758L3.7232 7.05507C3.84295 7.12407 3.8837 7.27708 3.8147 7.39658C3.76845 7.47683 3.68445 7.52158 3.59795 7.52158Z" fill="white"/>
<path d="M2.59814 6.9444C2.46014 6.9444 2.34814 6.8324 2.34814 6.6944V4.9624C2.34814 4.8244 2.46014 4.7124 2.59814 4.7124C2.73614 4.7124 2.84814 4.8244 2.84814 4.9624V6.6944C2.84814 6.83265 2.73614 6.9444 2.59814 6.9444Z" fill="white"/>
<path d="M5.69629 13.001C5.55829 13.001 5.44629 12.889 5.44629 12.751V6.75098C5.44629 6.61298 5.55829 6.50098 5.69629 6.50098C5.83429 6.50098 5.94629 6.61298 5.94629 6.75098V12.751C5.94629 12.889 5.83429 13.001 5.69629 13.001Z" fill="white"/>
<path d="M5.69606 7.00109C5.65381 7.00109 5.61081 6.99034 5.57131 6.96759L0.37506 3.96759C0.25531 3.89859 0.21456 3.74559 0.28356 3.62609C0.35256 3.50659 0.50531 3.46534 0.62506 3.53459L5.82131 6.53459C5.94106 6.60359 5.98181 6.75659 5.91281 6.87609C5.86631 6.95634 5.78231 7.00109 5.69606 7.00109Z" fill="white"/>
<path d="M5.69654 7.00115C5.61004 7.00115 5.52604 6.9564 5.47979 6.87615C5.41079 6.7564 5.45179 6.60365 5.57129 6.53465L10.7675 3.53465C10.8868 3.4654 11.0398 3.5064 11.109 3.62615C11.178 3.7459 11.137 3.89865 11.0175 3.96765L5.82129 6.96765C5.78179 6.9904 5.73879 7.00115 5.69654 7.00115Z" fill="white"/>
</svg>